HIERARCHY
ROOT Hips
{
	OFFSET 0.000000 0.000000 0.000000
	CHANNELS 6 Xposition Yposition Zposition Zrotation Yrotation Xrotation 
	JOINT LHipJoint
	{
		OFFSET 0.000000 0.000000 0.000000
		CHANNELS 3 Zrotation Yrotation Xrotation
		JOINT LeftUpLeg
		{
			OFFSET 1.363060 -1.794630 0.839290
			CHANNELS 3 Zrotation Yrotation Xrotation
			JOINT LeftLeg
			{
				OFFSET 2.448110 -6.726130 0.000000
				CHANNELS 3 Zrotation Yrotation Xrotation
				JOINT LeftFoot
				{
					OFFSET 2.562200 -7.039590 0.000000
					CHANNELS 3 Zrotation Yrotation Xrotation
					JOINT LeftToeBase
					{
						OFFSET 0.157640 -0.433110 2.322550
						CHANNELS 3 Zrotation Yrotation Xrotation
						End Site
						{
							OFFSET 0.000000 0.000000 0.000000
						}
					}
				}
			}
		}
	}
	JOINT RHipJoint
	{
		OFFSET 0.000000 0.000000 0.000000
		CHANNELS 3 Zrotation Yrotation Xrotation
		JOINT RightUpLeg
		{
			OFFSET -1.305520 -1.794630 0.839290
			CHANNELS 3 Zrotation Yrotation Xrotation
			JOINT RightLeg
			{
				OFFSET -2.542530 -6.985550 0.000000
				CHANNELS 3 Zrotation Yrotation Xrotation
				JOINT RightFoot
				{
					OFFSET -2.568260 -7.056230 0.000000
					CHANNELS 3 Zrotation Yrotation Xrotation
					JOINT RightToeBase
					{
						OFFSET -0.164730 -0.452590 2.363150
						CHANNELS 3 Zrotation Yrotation Xrotation
						End Site
						{
							OFFSET 0.000000 0.000000 0.000000
						}
					}
				}
			}
		}
	}
}
MOTION
Frames: 11
Frame Time: 0.008333
-19.536969 16.726551 -0.442058 21.669768 85.845835 49.159033 -8.442076 0.644049 5.888612 -11.915108 -9.160976 -55.684051 -2.614553 0.450639 25.914184 0.902638 3.288695 -4.821063 0.618000 0.000001 -20.999800 11.206827 -4.880496 1.482669 4.052357 -4.731935 -5.347231 0.927423 -1.376071 17.745223 0.134836 10.464418 26.208311 5.675300 -0.000000 -86.738200
-19.344288 16.695239 -0.445924 21.259382 85.755509 48.531877 -8.459746 0.623316 5.798611 -11.995957 -9.194369 -55.819362 -2.405266 0.656819 28.300806 1.019952 3.754830 -5.345174 0.591300 0.000000 -19.351800 11.329404 -4.921699 1.462145 3.613370 -5.257166 -5.546074 0.833017 -1.459381 19.091999 0.068773 11.552508 27.498663 6.520300 0.000000 -85.887399
-19.153324 16.667356 -0.449899 20.923995 85.665261 47.989719 -8.470506 0.601620 5.705243 -12.127918 -9.172957 -55.844960 -2.232423 0.823696 30.481394 1.140604 4.181017 -6.114717 0.525800 0.000000 -17.992600 11.449985 -4.947660 1.443422 3.190552 -5.772318 -5.866896 0.733567 -1.538725 20.599126 -0.013999 12.548476 28.805507 7.355800 -0.000000 -84.431000
-18.964632 16.643635 -0.454101 20.604498 85.568210 47.473716 -8.475312 0.583675 5.610919 -12.305322 -9.098885 -55.744319 -2.100537 0.952177 32.407656 1.260989 4.552783 -7.105704 0.419700 -0.000000 -16.971600 11.566548 -4.956893 1.425945 2.788030 -6.270059 -6.307578 0.630518 -1.613559 22.257750 -0.112607 13.371303 30.096260 8.122300 0.000000 -82.355100
-18.777645 16.624641 -0.458890 20.206751 85.457528 46.888372 -8.479124 0.572472 5.517016 -12.516065 -8.969605 -55.509968 -2.009572 1.045563 34.053522 1.377656 4.858224 -8.275993 0.275400 -0.000000 -16.302700 11.672628 -4.949530 1.409799 2.416368 -6.736865 -6.856243 0.525575 -1.683812 24.047101 -0.224869 13.922525 31.327071 8.740100 -0.000000 -79.701200
-18.592810 16.610762 -0.464343 19.748384 85.329011 46.245454 -8.481337 0.570804 5.423843 -12.757259 -8.792123 -55.130226 -1.956917 1.106400 35.402818 1.488604 5.098021 -9.565394 0.100601 0.000000 -15.973200 11.769520 -4.925385 1.392306 2.070238 -7.176473 -7.498635 0.420005 -1.750831 25.945777 -0.348548 14.115652 32.445358 9.129100 -0.000000 -76.592700
-18.409508 16.602156 -0.471179 19.076418 85.179950 45.390325 -8.493657 0.577564 5.332227 -13.002159 -8.558949 -54.617023 -1.935473 1.140297 36.465357 1.590558 5.268706 -10.907252 -0.094100 0.000000 -15.953200 11.843467 -4.887401 1.374712 1.773981 -7.564602 -8.210352 0.314474 -1.815263 27.915207 -0.481028 13.847965 33.395346 9.195300 0.000000 -73.223800
-18.227990 16.599042 -0.478587 18.493255 85.009689 44.612864 -8.498674 0.597211 5.241742 -13.275953 -8.304254 -53.940894 -1.940563 1.145537 37.226768 1.685507 5.402743 -12.221041 -0.294700 -0.000000 -16.177900 11.917329 -4.832432 1.349779 1.479368 -7.941697 -8.979856 0.208992 -1.880288 29.938339 -0.622908 13.094742 34.124033 8.900400 -0.000000 -69.847600
-18.047838 16.601131 -0.487968 17.665427 84.823566 43.587527 -8.521348 0.623740 5.155123 -13.523000 -8.007633 -53.149912 -1.960633 1.131308 37.734772 1.768946 5.494129 -13.450134 -0.489900 0.000001 -16.581800 11.961660 -4.767041 1.323821 1.247723 -8.253805 -9.779163 0.103211 -1.945092 31.965271 -0.772178 11.783276 34.571021 8.180300 0.000000 -66.698700
-17.869079 16.608503 -0.498325 16.934818 84.627120 42.645676 -8.541321 0.660728 5.072078 -13.773235 -7.709447 -52.219989 -1.990715 1.095265 37.985751 1.844446 5.584432 -14.532049 -0.669700 -0.000001 -17.071700 12.002199 -4.687831 1.290348 1.027213 -8.540954 -10.597395 -0.002166 -2.012745 33.978948 -0.930203 9.965897 34.680551 7.069101 -0.000000 -63.955300
-17.691154 16.620635 -0.510831 16.024392 84.429311 41.523889 -8.579822 0.702914 4.997874 -13.976349 -7.397197 -51.209176 -2.021281 1.046143 38.035799 1.909134 5.672072 -15.441662 -0.827899 0.000000 -17.558100 12.014672 -4.600754 1.255691 0.874098 -8.763894 -11.425406 -0.107236 -2.081632 35.945357 -1.095369 7.673471 34.402698 5.601000 -0.000000 -61.680400
